<svg aria-roledescription="flowchart-v2" role="graphics-document document" viewBox="-8 -8 935.96875 270" style="max-width: 935.969px; background-color: transparent;" xmlns:xlink="http://www.w3.org/1999/xlink" xmlns="http://www.w3.org/2000/svg" width="100%" id="my-svg"><style>#my-svg{font-family:"trebuchet ms",verdana,arial,sans-serif;font-size:16px;fill:#333;}#my-svg .error-icon{fill:#552222;}#my-svg .error-text{fill:#552222;stroke:#552222;}#my-svg .edge-thickness-normal{stroke-width:2px;}#my-svg .edge-thickness-thick{stroke-width:3.5px;}#my-svg .edge-pattern-solid{stroke-dasharray:0;}#my-svg .edge-pattern-dashed{stroke-dasharray:3;}#my-svg .edge-pattern-dotted{stroke-dasharray:2;}#my-svg .marker{fill:#333333;stroke:#333333;}#my-svg .marker.cross{stroke:#333333;}#my-svg svg{font-family:"trebuchet ms",verdana,arial,sans-serif;font-size:16px;}#my-svg .label{font-family:"trebuchet ms",verdana,arial,sans-serif;color:#333;}#my-svg .cluster-label text{fill:#333;}#my-svg .cluster-label span,#my-svg p{color:#333;}#my-svg .label text,#my-svg span,#my-svg p{fill:#333;color:#333;}#my-svg .node rect,#my-svg .node circle,#my-svg .node ellipse,#my-svg .node polygon,#my-svg .node path{fill:#ECECFF;stroke:#9370DB;stroke-width:1px;}#my-svg .flowchart-label text{text-anchor:middle;}#my-svg .node .katex path{fill:#000;stroke:#000;stroke-width:1px;}#my-svg .node .label{text-align:center;}#my-svg .node.clickable{cursor:pointer;}#my-svg .arrowheadPath{fill:#333333;}#my-svg .edgePath .path{stroke:#333333;stroke-width:2.0px;}#my-svg .flowchart-link{stroke:#333333;fill:none;}#my-svg .edgeLabel{background-color:#e8e8e8;text-align:center;}#my-svg .edgeLabel rect{opacity:0.5;background-color:#e8e8e8;fill:#e8e8e8;}#my-svg .labelBkg{background-color:rgba(232, 232, 232, 0.5);}#my-svg .cluster rect{fill:#ffffde;stroke:#aaaa33;stroke-width:1px;}#my-svg .cluster text{fill:#333;}#my-svg .cluster span,#my-svg p{color:#333;}#my-svg div.mermaidTooltip{position:absolute;text-align:center;max-width:200px;padding:2px;font-family:"trebuchet ms",verdana,arial,sans-serif;font-size:12px;background:hsl(80, 100%, 96.2745098039%);border:1px solid #aaaa33;border-radius:2px;pointer-events:none;z-index:100;}#my-svg .flowchartTitleText{text-anchor:middle;font-size:18px;fill:#333;}#my-svg :root{--mermaid-font-family:"trebuchet ms",verdana,arial,sans-serif;}</style><g><marker orient="auto" markerHeight="12" markerWidth="12" markerUnits="userSpaceOnUse" refY="5" refX="6" viewBox="0 0 10 10" class="marker flowchart" id="my-svg_flowchart-pointEnd"><path style="stroke-width: 1; stroke-dasharray: 1, 0;" class="arrowMarkerPath" d="M 0 0 L 10 5 L 0 10 z"/></marker><marker orient="auto" markerHeight="12" markerWidth="12" markerUnits="userSpaceOnUse" refY="5" refX="4.5" viewBox="0 0 10 10" class="marker flowchart" id="my-svg_flowchart-pointStart"><path style="stroke-width: 1; stroke-dasharray: 1, 0;" class="arrowMarkerPath" d="M 0 5 L 10 10 L 10 0 z"/></marker><marker orient="auto" markerHeight="11" markerWidth="11" markerUnits="userSpaceOnUse" refY="5" refX="11" viewBox="0 0 10 10" class="marker flowchart" id="my-svg_flowchart-circleEnd"><circle style="stroke-width: 1; stroke-dasharray: 1, 0;" class="arrowMarkerPath" r="5" cy="5" cx="5"/></marker><marker orient="auto" markerHeight="11" markerWidth="11" markerUnits="userSpaceOnUse" refY="5" refX="-1" viewBox="0 0 10 10" class="marker flowchart" id="my-svg_flowchart-circleStart"><circle style="stroke-width: 1; stroke-dasharray: 1, 0;" class="arrowMarkerPath" r="5" cy="5" cx="5"/></marker><marker orient="auto" markerHeight="11" markerWidth="11" markerUnits="userSpaceOnUse" refY="5.2" refX="12" viewBox="0 0 11 11" class="marker cross flowchart" id="my-svg_flowchart-crossEnd"><path style="stroke-width: 2; stroke-dasharray: 1, 0;" class="arrowMarkerPath" d="M 1,1 l 9,9 M 10,1 l -9,9"/></marker><marker orient="auto" markerHeight="11" markerWidth="11" markerUnits="userSpaceOnUse" refY="5.2" refX="-1" viewBox="0 0 11 11" class="marker cross flowchart" id="my-svg_flowchart-crossStart"><path style="stroke-width: 2; stroke-dasharray: 1, 0;" class="arrowMarkerPath" d="M 1,1 l 9,9 M 10,1 l -9,9"/></marker><g class="root"><g class="clusters"/><g class="edgePaths"><path marker-end="url(#my-svg_flowchart-pointEnd)" style="fill:none;" class="edge-thickness-normal edge-pattern-solid flowchart-link LS-loginScreen LE-dashboard" id="L-loginScreen-dashboard-0" d="M127.891,127L132.057,127C136.224,127,144.557,127,152.007,127C159.457,127,166.024,127,169.307,127L172.591,127"/><path marker-end="url(#my-svg_flowchart-pointEnd)" style="fill:none;" class="edge-thickness-normal edge-pattern-solid flowchart-link LS-dashboard LE-tasksList" id="L-dashboard-tasksList-0" d="M266.388,110L280.24,94.5C294.092,79,321.796,48,338.931,32.5C356.067,17,362.633,17,365.917,17L369.2,17"/><path marker-end="url(#my-svg_flowchart-pointEnd)" style="fill:none;" class="edge-thickness-normal edge-pattern-solid flowchart-link LS-dashboard LE-assetsList" id="L-dashboard-assetsList-0" d="M315.471,144L321.143,145.5C326.814,147,338.157,150,358.071,151.5C377.984,153,406.469,153,434.953,153C463.438,153,491.922,153,514.262,153C536.603,153,552.8,153,560.898,153L568.997,153"/><path marker-end="url(#my-svg_flowchart-pointEnd)" style="fill:none;" class="edge-thickness-normal edge-pattern-solid flowchart-link LS-dashboard LE-reportsPage" id="L-dashboard-reportsPage-0" d="M315.471,110L321.143,108.5C326.814,107,338.157,104,351.48,102.5C364.804,101,380.107,101,387.759,101L395.411,101"/><path marker-end="url(#my-svg_flowchart-pointEnd)" style="fill:none;" class="edge-thickness-normal edge-pattern-solid flowchart-link LS-tasksList LE-taskView" id="L-tasksList-taskView-0" d="M495.406,17L499.573,17C503.74,17,512.073,17,523.742,17C535.41,17,550.415,17,557.917,17L565.419,17"/><path marker-end="url(#my-svg_flowchart-pointEnd)" style="fill:none;" class="edge-thickness-normal edge-pattern-solid flowchart-link LS-taskView LE-assetView" id="L-taskView-assetView-0" d="M707.781,17L716.167,17C724.552,17,741.323,17,762.834,36.105C784.346,55.211,810.598,93.421,823.724,112.526L836.85,131.632"/><path marker-end="url(#my-svg_flowchart-pointEnd)" style="fill:none;" class="edge-thickness-normal edge-pattern-solid flowchart-link LS-assetsList LE-assetView" id="L-assetsList-assetView-0" d="M704.203,153L713.185,153C722.167,153,740.13,153,752.395,153C764.66,153,771.227,153,774.51,153L777.794,153"/><path marker-end="url(#my-svg_flowchart-pointEnd)" style="fill:none;" class="edge-thickness-normal edge-pattern-solid flowchart-link LS-dashboard LE-userCard" id="L-dashboard-userCard-0" d="M266.388,144L280.24,159.5C294.092,175,321.796,206,349.89,221.5C377.984,237,406.469,237,434.953,237C463.438,237,491.922,237,509.447,237C526.973,237,533.54,237,536.823,237L540.106,237"/><path marker-end="url(#my-svg_flowchart-pointEnd)" style="fill:none;" class="edge-thickness-normal edge-pattern-solid flowchart-link LS-userCard LE-assetView" id="L-userCard-assetView-0" d="M733.094,237L737.26,237C741.427,237,749.76,237,765.691,226.424C781.622,215.848,805.151,194.696,816.916,184.119L828.68,173.543"/></g><g class="edgeLabels"><g class="edgeLabel"><g transform="translate(0, 0)" class="label"><foreignObject height="0" width="0"><div style="display: inline-block; white-space: nowrap;" xmlns="http://www.w3.org/1999/xhtml"><span class="edgeLabel"></span></div></foreignObject></g></g><g class="edgeLabel"><g transform="translate(0, 0)" class="label"><foreignObject height="0" width="0"><div style="display: inline-block; white-space: nowrap;" xmlns="http://www.w3.org/1999/xhtml"><span class="edgeLabel"></span></div></foreignObject></g></g><g class="edgeLabel"><g transform="translate(0, 0)" class="label"><foreignObject height="0" width="0"><div style="display: inline-block; white-space: nowrap;" xmlns="http://www.w3.org/1999/xhtml"><span class="edgeLabel"></span></div></foreignObject></g></g><g class="edgeLabel"><g transform="translate(0, 0)" class="label"><foreignObject height="0" width="0"><div style="display: inline-block; white-space: nowrap;" xmlns="http://www.w3.org/1999/xhtml"><span class="edgeLabel"></span></div></foreignObject></g></g><g class="edgeLabel"><g transform="translate(0, 0)" class="label"><foreignObject height="0" width="0"><div style="display: inline-block; white-space: nowrap;" xmlns="http://www.w3.org/1999/xhtml"><span class="edgeLabel"></span></div></foreignObject></g></g><g class="edgeLabel"><g transform="translate(0, 0)" class="label"><foreignObject height="0" width="0"><div style="display: inline-block; white-space: nowrap;" xmlns="http://www.w3.org/1999/xhtml"><span class="edgeLabel"></span></div></foreignObject></g></g><g class="edgeLabel"><g transform="translate(0, 0)" class="label"><foreignObject height="0" width="0"><div style="display: inline-block; white-space: nowrap;" xmlns="http://www.w3.org/1999/xhtml"><span class="edgeLabel"></span></div></foreignObject></g></g><g class="edgeLabel"><g transform="translate(0, 0)" class="label"><foreignObject height="0" width="0"><div style="display: inline-block; white-space: nowrap;" xmlns="http://www.w3.org/1999/xhtml"><span class="edgeLabel"></span></div></foreignObject></g></g><g class="edgeLabel"><g transform="translate(0, 0)" class="label"><foreignObject height="0" width="0"><div style="display: inline-block; white-space: nowrap;" xmlns="http://www.w3.org/1999/xhtml"><span class="edgeLabel"></span></div></foreignObject></g></g></g><g class="nodes"><g transform="translate(63.9453125, 127)" data-id="loginScreen" data-node="true" id="flowchart-loginScreen-0" class="node default default flowchart-label"><rect height="34" width="127.890625" y="-17" x="-63.9453125" ry="0" rx="0" style="" class="basic label-container"/><g transform="translate(-56.4453125, -9.5)" style="" class="label"><rect/><foreignObject height="19" width="112.890625"><div style="display: inline-block; white-space: nowrap;" xmlns="http://www.w3.org/1999/xhtml"><span class="nodeLabel">Вход в систему</span></div></foreignObject></g></g><g transform="translate(251.1953125, 127)" data-id="dashboard" data-node="true" id="flowchart-dashboard-1" class="node default default flowchart-label"><rect height="34" width="146.609375" y="-17" x="-73.3046875" ry="0" rx="0" style="" class="basic label-container"/><g transform="translate(-65.8046875, -9.5)" style="" class="label"><rect/><foreignObject height="19" width="131.609375"><div style="display: inline-block; white-space: nowrap;" xmlns="http://www.w3.org/1999/xhtml"><span class="nodeLabel">Главная страница</span></div></foreignObject></g></g><g transform="translate(434.953125, 17)" data-id="tasksList" data-node="true" id="flowchart-tasksList-3" class="node default default flowchart-label"><rect height="34" width="120.90625" y="-17" x="-60.453125" ry="0" rx="0" style="" class="basic label-container"/><g transform="translate(-52.953125, -9.5)" style="" class="label"><rect/><foreignObject height="19" width="105.90625"><div style="display: inline-block; white-space: nowrap;" xmlns="http://www.w3.org/1999/xhtml"><span class="nodeLabel">Список заявок</span></div></foreignObject></g></g><g transform="translate(639.25, 153)" data-id="assetsList" data-node="true" id="flowchart-assetsList-5" class="node default default flowchart-label"><rect height="34" width="129.90625" y="-17" x="-64.953125" ry="0" rx="0" style="" class="basic label-container"/><g transform="translate(-57.453125, -9.5)" style="" class="label"><rect/><foreignObject height="19" width="114.90625"><div style="display: inline-block; white-space: nowrap;" xmlns="http://www.w3.org/1999/xhtml"><span class="nodeLabel">Список активов</span></div></foreignObject></g></g><g transform="translate(434.953125, 101)" data-id="reportsPage" data-node="true" id="flowchart-reportsPage-7" class="node default default flowchart-label"><rect height="34" width="68.484375" y="-17" x="-34.2421875" ry="0" rx="0" style="" class="basic label-container"/><g transform="translate(-26.7421875, -9.5)" style="" class="label"><rect/><foreignObject height="19" width="53.484375"><div style="display: inline-block; white-space: nowrap;" xmlns="http://www.w3.org/1999/xhtml"><span class="nodeLabel">Отчеты</span></div></foreignObject></g></g><g transform="translate(639.25, 17)" data-id="taskView" data-node="true" id="flowchart-taskView-9" class="node default default flowchart-label"><rect height="34" width="137.0625" y="-17" x="-68.53125" ry="0" rx="0" style="" class="basic label-container"/><g transform="translate(-61.03125, -9.5)" style="" class="label"><rect/><foreignObject height="19" width="122.0625"><div style="display: inline-block; white-space: nowrap;" xmlns="http://www.w3.org/1999/xhtml"><span class="nodeLabel">Карточка заявки</span></div></foreignObject></g></g><g transform="translate(851.53125, 153)" data-id="assetView" data-node="true" id="flowchart-assetView-11" class="node default default flowchart-label"><rect height="34" width="136.875" y="-17" x="-68.4375" ry="0" rx="0" style="" class="basic label-container"/><g transform="translate(-60.9375, -9.5)" style="" class="label"><rect/><foreignObject height="19" width="121.875"><div style="display: inline-block; white-space: nowrap;" xmlns="http://www.w3.org/1999/xhtml"><span class="nodeLabel">Карточка актива</span></div></foreignObject></g></g><g transform="translate(639.25, 237)" data-id="userCard" data-node="true" id="flowchart-userCard-15" class="node default default flowchart-label"><rect height="34" width="187.6875" y="-17" x="-93.84375" ry="0" rx="0" style="" class="basic label-container"/><g transform="translate(-86.34375, -9.5)" style="" class="label"><rect/><foreignObject height="19" width="172.6875"><div style="display: inline-block; white-space: nowrap;" xmlns="http://www.w3.org/1999/xhtml"><span class="nodeLabel">Карточка пользователя</span></div></foreignObject></g></g></g></g></g></svg>