<svg id="my-svg" width="100%" xmlns="http://www.w3.org/2000/svg" xmlns:xlink="http://www.w3.org/1999/xlink" class="erDiagram" style="max-width: 738.641px; background-color: transparent;" viewBox="0 0 738.640625 688.25" role="graphics-document document" aria-roledescription="er"><style>#my-svg{font-family:"trebuchet ms",verdana,arial,sans-serif;font-size:16px;fill:#333;}@keyframes edge-animation-frame{from{stroke-dashoffset:0;}}@keyframes dash{to{stroke-dashoffset:0;}}#my-svg .edge-animation-slow{stroke-dasharray:9,5!important;stroke-dashoffset:900;animation:dash 50s linear infinite;stroke-linecap:round;}#my-svg .edge-animation-fast{stroke-dasharray:9,5!important;stroke-dashoffset:900;animation:dash 20s linear infinite;stroke-linecap:round;}#my-svg .error-icon{fill:#552222;}#my-svg .error-text{fill:#552222;stroke:#552222;}#my-svg .edge-thickness-normal{stroke-width:1px;}#my-svg .edge-thickness-thick{stroke-width:3.5px;}#my-svg .edge-pattern-solid{stroke-dasharray:0;}#my-svg .edge-thickness-invisible{stroke-width:0;fill:none;}#my-svg .edge-pattern-dashed{stroke-dasharray:3;}#my-svg .edge-pattern-dotted{stroke-dasharray:2;}#my-svg .marker{fill:#333333;stroke:#333333;}#my-svg .marker.cross{stroke:#333333;}#my-svg svg{font-family:"trebuchet ms",verdana,arial,sans-serif;font-size:16px;}#my-svg p{margin:0;}#my-svg .entityBox{fill:#ECECFF;stroke:#9370DB;}#my-svg .relationshipLabelBox{fill:hsl(80, 100%, 96.2745098039%);opacity:0.7;background-color:hsl(80, 100%, 96.2745098039%);}#my-svg .relationshipLabelBox rect{opacity:0.5;}#my-svg .labelBkg{background-color:rgba(248.6666666666, 255, 235.9999999999, 0.5);}#my-svg .edgeLabel .label{fill:#9370DB;font-size:14px;}#my-svg .label{font-family:"trebuchet ms",verdana,arial,sans-serif;color:#333;}#my-svg .edge-pattern-dashed{stroke-dasharray:8,8;}#my-svg .node rect,#my-svg .node circle,#my-svg .node ellipse,#my-svg .node polygon{fill:#ECECFF;stroke:#9370DB;stroke-width:1px;}#my-svg .relationshipLine{stroke:#333333;stroke-width:1;fill:none;}#my-svg .marker{fill:none!important;stroke:#333333!important;stroke-width:1;}#my-svg .edgeLabel{background-color:rgba(232,232,232, 0.8);}#my-svg .edgeLabel .label rect{fill:rgba(232,232,232, 0.8);}#my-svg .edgeLabel .label text{fill:#333;}#my-svg :root{--mermaid-font-family:"trebuchet ms",verdana,arial,sans-serif;}</style><g><defs><marker id="my-svg_er-onlyOneStart" class="marker onlyOne er" refX="0" refY="9" markerWidth="18" markerHeight="18" orient="auto"><path d="M9,0 L9,18 M15,0 L15,18"/></marker></defs><defs><marker id="my-svg_er-onlyOneEnd" class="marker onlyOne er" refX="18" refY="9" markerWidth="18" markerHeight="18" orient="auto"><path d="M3,0 L3,18 M9,0 L9,18"/></marker></defs><defs><marker id="my-svg_er-zeroOrOneStart" class="marker zeroOrOne er" refX="0" refY="9" markerWidth="30" markerHeight="18" orient="auto"><circle fill="white" cx="21" cy="9" r="6"/><path d="M9,0 L9,18"/></marker></defs><defs><marker id="my-svg_er-zeroOrOneEnd" class="marker zeroOrOne er" refX="30" refY="9" markerWidth="30" markerHeight="18" orient="auto"><circle fill="white" cx="9" cy="9" r="6"/><path d="M21,0 L21,18"/></marker></defs><defs><marker id="my-svg_er-oneOrMoreStart" class="marker oneOrMore er" refX="18" refY="18" markerWidth="45" markerHeight="36" orient="auto"><path d="M0,18 Q 18,0 36,18 Q 18,36 0,18 M42,9 L42,27"/></marker></defs><defs><marker id="my-svg_er-oneOrMoreEnd" class="marker oneOrMore er" refX="27" refY="18" markerWidth="45" markerHeight="36" orient="auto"><path d="M3,9 L3,27 M9,18 Q27,0 45,18 Q27,36 9,18"/></marker></defs><defs><marker id="my-svg_er-zeroOrMoreStart" class="marker zeroOrMore er" refX="18" refY="18" markerWidth="57" markerHeight="36" orient="auto"><circle fill="white" cx="48" cy="18" r="6"/><path d="M0,18 Q18,0 36,18 Q18,36 0,18"/></marker></defs><defs><marker id="my-svg_er-zeroOrMoreEnd" class="marker zeroOrMore er" refX="39" refY="18" markerWidth="57" markerHeight="36" orient="auto"><circle fill="white" cx="9" cy="18" r="6"/><path d="M21,18 Q39,0 57,18 Q39,36 21,18"/></marker></defs><g class="root"><g class="clusters"/><g class="edgePaths"><path d="M630.491,408.25L632.665,416.667C634.838,425.083,639.185,441.917,641.358,462.313C643.531,482.708,643.531,506.667,643.531,518.646L643.531,530.625" id="id_entity-ЗАЯВКА-0_entity-ВЛОЖЕНИЕ-1_0" class="edge-thickness-normal edge-pattern-solid relationshipLine" style="undefined;;;undefined" data-edge="true" data-et="edge" data-id="id_entity-ЗАЯВКА-0_entity-ВЛОЖЕНИЕ-1_0" data-points="W3sieCI6NjMwLjQ5MTQxMTk5NDQ4NTIsInkiOjQwOC4yNX0seyJ4Ijo2NDMuNTMxMjUsInkiOjQ1OC43NX0seyJ4Ijo2NDMuNTMxMjUsInkiOjUzMC42MjV9XQ==" marker-start="url(#my-svg_er-onlyOneStart)" marker-end="url(#my-svg_er-zeroOrMoreEnd)"/><path d="M248.715,106.846L216.64,120.163C184.565,133.481,120.415,160.115,88.34,196.099C56.266,232.083,56.266,277.417,56.266,322.75C56.266,368.083,56.266,413.417,80.37,450.321C104.474,487.226,152.682,515.702,176.786,529.94L200.891,544.177" id="id_entity-ПОЛЬЗОВАТЕЛЬ-2_entity-АКТИВ-3_1" class="edge-thickness-normal edge-pattern-solid relationshipLine" style="undefined;;;undefined" data-edge="true" data-et="edge" data-id="id_entity-ПОЛЬЗОВАТЕЛЬ-2_entity-АКТИВ-3_1" data-points="W3sieCI6MjQ4LjcxNDg0Mzc1LCJ5IjoxMDYuODQ1NzkyMzU5MzkxNTh9LHsieCI6NTYuMjY1NjI1LCJ5IjoxODYuNzV9LHsieCI6NTYuMjY1NjI1LCJ5IjozMjIuNzV9LHsieCI6NTYuMjY1NjI1LCJ5Ijo0NTguNzV9LHsieCI6MjAwLjg5MDYyNSwieSI6NTQ0LjE3NzQzNzE0MTU5Njh9XQ==" marker-start="url(#my-svg_er-onlyOneStart)" marker-end="url(#my-svg_er-zeroOrMoreEnd)"/><path d="M286.508,386.875L286.508,398.854C286.508,410.833,286.508,434.792,286.508,455.188C286.508,475.583,286.508,492.417,286.508,500.833L286.508,509.25" id="id_entity-ЛОКАЦИЯ-4_entity-АКТИВ-3_2" class="edge-thickness-normal edge-pattern-solid relationshipLine" style="undefined;;;undefined" data-edge="true" data-et="edge" data-id="id_entity-ЛОКАЦИЯ-4_entity-АКТИВ-3_2" data-points="W3sieCI6Mjg2LjUwNzgxMjUsInkiOjM4Ni44NzV9LHsieCI6Mjg2LjUwNzgxMjUsInkiOjQ1OC43NX0seyJ4IjoyODYuNTA3ODEyNSwieSI6NTA5LjI1fV0=" marker-start="url(#my-svg_er-onlyOneStart)" marker-end="url(#my-svg_er-zeroOrMoreEnd)"/><path d="M342.98,136.25L344.377,144.667C345.773,153.083,348.566,169.917,379.484,193.952C410.401,217.987,469.443,249.224,498.964,264.843L528.484,280.462" id="id_entity-ПОЛЬЗОВАТЕЛЬ-2_entity-ЗАЯВКА-0_3" class="edge-thickness-normal edge-pattern-solid relationshipLine" style="undefined;;;undefined" data-edge="true" data-et="edge" data-id="id_entity-ПОЛЬЗОВАТЕЛЬ-2_entity-ЗАЯВКА-0_3" data-points="W3sieCI6MzQyLjk3OTk5NTkxMDU3OCwieSI6MTM2LjI1fSx7IngiOjM1MS4zNTkzNzUsInkiOjE4Ni43NX0seyJ4Ijo1MjguNDg0Mzc1LCJ5IjoyODAuNDYxNTc2NDUxOTk1MjZ9XQ==" marker-start="url(#my-svg_er-onlyOneStart)" marker-end="url(#my-svg_er-zeroOrMoreEnd)"/><path d="M415.965,102.478L454.66,116.524C493.355,130.569,570.746,158.659,606.983,181.121C643.22,203.583,638.303,220.417,635.845,228.833L633.387,237.25" id="id_entity-ПОЛЬЗОВАТЕЛЬ-2_entity-ЗАЯВКА-0_4" class="edge-thickness-normal edge-pattern-solid relationshipLine" style="undefined;;;undefined" data-edge="true" data-et="edge" data-id="id_entity-ПОЛЬЗОВАТЕЛЬ-2_entity-ЗАЯВКА-0_4" data-points="W3sieCI6NDE1Ljk2NDg0Mzc1LCJ5IjoxMDIuNDc4NDIxNDA0MTg1ODR9LHsieCI6NjQ4LjEzNjcxODc1LCJ5IjoxODYuNzV9LHsieCI6NjMzLjM4Njc2MTgzMzYzOTgsInkiOjIzNy4yNX1d" marker-start="url(#my-svg_er-onlyOneStart)" marker-end="url(#my-svg_er-zeroOrOneEnd)"/><path d="M535.132,408.25L527.918,416.667C520.704,425.083,506.276,441.917,479.108,463.549C451.94,485.181,412.033,511.613,392.079,524.829L372.125,538.044" id="id_entity-ЗАЯВКА-0_entity-АКТИВ-3_5" class="edge-thickness-normal edge-pattern-solid relationshipLine" style="undefined;;;undefined" data-edge="true" data-et="edge" data-id="id_entity-ЗАЯВКА-0_entity-АКТИВ-3_5" data-points="W3sieCI6NTM1LjEzMTUwNTYyOTU5NTYsInkiOjQwOC4yNX0seyJ4Ijo0OTEuODQ3NjU2MjUsInkiOjQ1OC43NX0seyJ4IjozNzIuMTI1LCJ5Ijo1MzguMDQ0MzEwMTE4NTE1NX1d" marker-start="url(#my-svg_er-zeroOrMoreStart)" marker-end="url(#my-svg_er-zeroOrMoreEnd)"/></g><g class="edgeLabels"><g class="edgeLabel" transform="translate(643.53125, 458.75)"><g class="label" data-id="id_entity-ЗАЯВКА-0_entity-ВЛОЖЕНИЕ-1_0" transform="translate(-19.609375, -10.5)"><foreignObject width="39.21875" height="21"><div xmlns="http://www.w3.org/1999/xhtml" class="labelBkg" style="display: table-cell; white-space: nowrap; line-height: 1.5; max-width: 200px; text-align: center;"><span class="edgeLabel"><p>имеет</p></span></div></foreignObject></g></g><g class="edgeLabel" transform="translate(56.265625, 322.75)"><g class="label" data-id="id_entity-ПОЛЬЗОВАТЕЛЬ-2_entity-АКТИВ-3_1" transform="translate(-48.265625, -10.5)"><foreignObject width="96.53125" height="21"><div xmlns="http://www.w3.org/1999/xhtml" class="labelBkg" style="display: table-cell; white-space: nowrap; line-height: 1.5; max-width: 200px; text-align: center;"><span class="edgeLabel"><p>ответственный</p></span></div></foreignObject></g></g><g class="edgeLabel" transform="translate(286.5078125, 458.75)"><g class="label" data-id="id_entity-ЛОКАЦИЯ-4_entity-АКТИВ-3_2" transform="translate(-38.1484375, -10.5)"><foreignObject width="76.296875" height="21"><div xmlns="http://www.w3.org/1999/xhtml" class="labelBkg" style="display: table-cell; white-space: nowrap; line-height: 1.5; max-width: 200px; text-align: center;"><span class="edgeLabel"><p>размещён в</p></span></div></foreignObject></g></g><g class="edgeLabel" transform="translate(417.29792, 221.63613)"><g class="label" data-id="id_entity-ПОЛЬЗОВАТЕЛЬ-2_entity-ЗАЯВКА-0_3" transform="translate(-18.0390625, -10.5)"><foreignObject width="36.078125" height="21"><div xmlns="http://www.w3.org/1999/xhtml" class="labelBkg" style="display: table-cell; white-space: nowrap; line-height: 1.5; max-width: 200px; text-align: center;"><span class="edgeLabel"><p>автор</p></span></div></foreignObject></g></g><g class="edgeLabel" transform="translate(556.77733, 153.58922)"><g class="label" data-id="id_entity-ПОЛЬЗОВАТЕЛЬ-2_entity-ЗАЯВКА-0_4" transform="translate(-41.40625, -10.5)"><foreignObject width="82.8125" height="21"><div xmlns="http://www.w3.org/1999/xhtml" class="labelBkg" style="display: table-cell; white-space: nowrap; line-height: 1.5; max-width: 200px; text-align: center;"><span class="edgeLabel"><p>исполнитель</p></span></div></foreignObject></g></g><g class="edgeLabel" transform="translate(459.7122, 480.03384)"><g class="label" data-id="id_entity-ЗАЯВКА-0_entity-АКТИВ-3_5" transform="translate(-30.625, -10.5)"><foreignObject width="61.25" height="21"><div xmlns="http://www.w3.org/1999/xhtml" class="labelBkg" style="display: table-cell; white-space: nowrap; line-height: 1.5; max-width: 200px; text-align: center;"><span class="edgeLabel"><p>связана с</p></span></div></foreignObject></g></g></g><g class="nodes"><g class="node default" id="entity-ЗАЯВКА-0" transform="translate(608.4140625, 322.75)"><g style=""><path d="M-79.9296875 -85.5 L79.9296875 -85.5 L79.9296875 85.5 L-79.9296875 85.5" stroke="none" stroke-width="0" fill="#ECECFF"/><path d="M-79.9296875 -85.5 C-35.57690319395834 -85.5, 8.775881112083326 -85.5, 79.9296875 -85.5 M-79.9296875 -85.5 C-47.81732690891658 -85.5, -15.704966317833154 -85.5, 79.9296875 -85.5 M79.9296875 -85.5 C79.9296875 -42.85151141774566, 79.9296875 -0.20302283549132483, 79.9296875 85.5 M79.9296875 -85.5 C79.9296875 -18.926281051631832, 79.9296875 47.647437896736335, 79.9296875 85.5 M79.9296875 85.5 C17.957542801352332 85.5, -44.014601897295336 85.5, -79.9296875 85.5 M79.9296875 85.5 C38.018701153080116 85.5, -3.8922851938397685 85.5, -79.9296875 85.5 M-79.9296875 85.5 C-79.9296875 48.510812801468994, -79.9296875 11.521625602937988, -79.9296875 -85.5 M-79.9296875 85.5 C-79.9296875 49.32857050558965, -79.9296875 13.157141011179306, -79.9296875 -85.5" stroke="#9370DB" stroke-width="1.3" fill="none" stroke-dasharray="0 0"/></g><g style="" class="row-rect-odd"><path d="M-79.9296875 -42.75 L79.9296875 -42.75 L79.9296875 0 L-79.9296875 0" stroke="none" stroke-width="0" fill="hsl(240, 100%, 100%)"/><path d="M-79.9296875 -42.75 C-45.94901931842202 -42.75, -11.968351136844035 -42.75, 79.9296875 -42.75 M-79.9296875 -42.75 C-22.28693344640226 -42.75, 35.35582060719548 -42.75, 79.9296875 -42.75 M79.9296875 -42.75 C79.9296875 -29.313834078991597, 79.9296875 -15.877668157983194, 79.9296875 0 M79.9296875 -42.75 C79.9296875 -32.95898961465482, 79.9296875 -23.16797922930964, 79.9296875 0 M79.9296875 0 C45.03794060819368 0, 10.146193716387359 0, -79.9296875 0 M79.9296875 0 C19.856895760182873 0, -40.215895979634254 0, -79.9296875 0 M-79.9296875 0 C-79.9296875 -8.657212298148387, -79.9296875 -17.314424596296774, -79.9296875 -42.75 M-79.9296875 0 C-79.9296875 -16.445475228925577, -79.9296875 -32.890950457851154, -79.9296875 -42.75" stroke="#9370DB" stroke-width="1.3" fill="none" stroke-dasharray="0 0"/></g><g style="" class="row-rect-even"><path d="M-79.9296875 0 L79.9296875 0 L79.9296875 42.75 L-79.9296875 42.75" stroke="none" stroke-width="0" fill="hsl(240, 100%, 97.2745098039%)"/><path d="M-79.9296875 0 C-20.434976449770645 0, 39.05973460045871 0, 79.9296875 0 M-79.9296875 0 C-40.65353999926869 0, -1.3773924985373753 0, 79.9296875 0 M79.9296875 0 C79.9296875 10.820205248959544, 79.9296875 21.64041049791909, 79.9296875 42.75 M79.9296875 0 C79.9296875 16.628146722927465, 79.9296875 33.25629344585493, 79.9296875 42.75 M79.9296875 42.75 C25.27244527360852 42.75, -29.384796952782963 42.75, -79.9296875 42.75 M79.9296875 42.75 C36.394827917168456 42.75, -7.140031665663088 42.75, -79.9296875 42.75 M-79.9296875 42.75 C-79.9296875 27.317528915634725, -79.9296875 11.885057831269453, -79.9296875 0 M-79.9296875 42.75 C-79.9296875 25.788113211440933, -79.9296875 8.826226422881867, -79.9296875 0" stroke="#9370DB" stroke-width="1.3" fill="none" stroke-dasharray="0 0"/></g><g style="" class="row-rect-odd"><path d="M-79.9296875 42.75 L79.9296875 42.75 L79.9296875 85.5 L-79.9296875 85.5" stroke="none" stroke-width="0" fill="hsl(240, 100%, 100%)"/><path d="M-79.9296875 42.75 C-36.966264325570016 42.75, 5.997158848859968 42.75, 79.9296875 42.75 M-79.9296875 42.75 C-36.578762271387944 42.75, 6.772162957224111 42.75, 79.9296875 42.75 M79.9296875 42.75 C79.9296875 53.73549342754153, 79.9296875 64.72098685508305, 79.9296875 85.5 M79.9296875 42.75 C79.9296875 57.22848492384284, 79.9296875 71.70696984768568, 79.9296875 85.5 M79.9296875 85.5 C35.18370280474041 85.5, -9.562281890519174 85.5, -79.9296875 85.5 M79.9296875 85.5 C35.33312029244378 85.5, -9.26344691511244 85.5, -79.9296875 85.5 M-79.9296875 85.5 C-79.9296875 73.48881980475849, -79.9296875 61.477639609517, -79.9296875 42.75 M-79.9296875 85.5 C-79.9296875 73.0959042107009, -79.9296875 60.691808421401774, -79.9296875 42.75" stroke="#9370DB" stroke-width="1.3" fill="none" stroke-dasharray="0 0"/></g><g class="label name" transform="translate(-27.9296875, -76.125)" style=""><foreignObject width="55.859375" height="24"><div xmlns="http://www.w3.org/1999/xhtml" style="display: table-cell; white-space: nowrap; line-height: 1.5; max-width: 163px; text-align: start;"><span class="nodeLabel"><p>ЗАЯВКА</p></span></div></foreignObject></g><g class="label attribute-type" transform="translate(-67.4296875, -33.375)" style=""><foreignObject width="19.65625" height="24"><div xmlns="http://www.w3.org/1999/xhtml" style="display: table-cell; white-space: nowrap; line-height: 1.5; max-width: 117px; text-align: start;"><span class="nodeLabel"><p>int</p></span></div></foreignObject></g><g class="label attribute-name" transform="translate(-2.0546875, -33.375)" style=""><foreignObject width="13.484375" height="24"><div xmlns="http://www.w3.org/1999/xhtml" style="display: table-cell; white-space: nowrap; line-height: 1.5; max-width: 112px; text-align: start;"><span class="nodeLabel"><p>id</p></span></div></foreignObject></g><g class="label attribute-keys" transform="translate(92.4296875, -33.375)" style=""><foreignObject width="0" height="0"><div xmlns="http://www.w3.org/1999/xhtml" style="display: table-cell; white-space: nowrap; line-height: 1.5; max-width: 100px; text-align: start;"><span class="nodeLabel"></span></div></foreignObject></g><g class="label attribute-comment" transform="translate(92.4296875, -33.375)" style=""><foreignObject width="0" height="0"><div xmlns="http://www.w3.org/1999/xhtml" style="display: table-cell; white-space: nowrap; line-height: 1.5; max-width: 100px; text-align: start;"><span class="nodeLabel"></span></div></foreignObject></g><g class="label attribute-type" transform="translate(-67.4296875, 9.375)" style=""><foreignObject width="40.375" height="24"><div xmlns="http://www.w3.org/1999/xhtml" style="display: table-cell; white-space: nowrap; line-height: 1.5; max-width: 136px; text-align: start;"><span class="nodeLabel"><p>string</p></span></div></foreignObject></g><g class="label attribute-name" transform="translate(-2.0546875, 9.375)" style=""><foreignObject width="69.484375" height="24"><div xmlns="http://www.w3.org/1999/xhtml" style="display: table-cell; white-space: nowrap; line-height: 1.5; max-width: 164px; text-align: start;"><span class="nodeLabel"><p>описание</p></span></div></foreignObject></g><g class="label attribute-keys" transform="translate(92.4296875, 9.375)" style=""><foreignObject width="0" height="0"><div xmlns="http://www.w3.org/1999/xhtml" style="display: table-cell; white-space: nowrap; line-height: 1.5; max-width: 100px; text-align: start;"><span class="nodeLabel"></span></div></foreignObject></g><g class="label attribute-comment" transform="translate(92.4296875, 9.375)" style=""><foreignObject width="0" height="0"><div xmlns="http://www.w3.org/1999/xhtml" style="display: table-cell; white-space: nowrap; line-height: 1.5; max-width: 100px; text-align: start;"><span class="nodeLabel"></span></div></foreignObject></g><g class="label attribute-type" transform="translate(-67.4296875, 52.125)" style=""><foreignObject width="40.375" height="24"><div xmlns="http://www.w3.org/1999/xhtml" style="display: table-cell; white-space: nowrap; line-height: 1.5; max-width: 136px; text-align: start;"><span class="nodeLabel"><p>string</p></span></div></foreignObject></g><g class="label attribute-name" transform="translate(-2.0546875, 52.125)" style=""><foreignObject width="46.578125" height="24"><div xmlns="http://www.w3.org/1999/xhtml" style="display: table-cell; white-space: nowrap; line-height: 1.5; max-width: 143px; text-align: start;"><span class="nodeLabel"><p>статус</p></span></div></foreignObject></g><g class="label attribute-keys" transform="translate(92.4296875, 52.125)" style=""><foreignObject width="0" height="0"><div xmlns="http://www.w3.org/1999/xhtml" style="display: table-cell; white-space: nowrap; line-height: 1.5; max-width: 100px; text-align: start;"><span class="nodeLabel"></span></div></foreignObject></g><g class="label attribute-comment" transform="translate(92.4296875, 52.125)" style=""><foreignObject width="0" height="0"><div xmlns="http://www.w3.org/1999/xhtml" style="display: table-cell; white-space: nowrap; line-height: 1.5; max-width: 100px; text-align: start;"><span class="nodeLabel"></span></div></foreignObject></g><g class="divider"><path d="M-79.9296875 -42.75 C-41.793434153938925 -42.75, -3.6571808078778503 -42.75, 79.9296875 -42.75 M-79.9296875 -42.75 C-44.73425708751066 -42.75, -9.538826675021326 -42.75, 79.9296875 -42.75" stroke="#9370DB" stroke-width="1.3" fill="none" stroke-dasharray="0 0"/></g><g class="divider"><path d="M-14.5546875 -42.75 C-14.5546875 -13.237164956925966, -14.5546875 16.275670086148068, -14.5546875 85.5 M-14.5546875 -42.75 C-14.5546875 -8.651259396988472, -14.5546875 25.447481206023056, -14.5546875 85.5" stroke="#9370DB" stroke-width="1.3" fill="none" stroke-dasharray="0 0"/></g><g class="divider"><path d="M-79.9296875 -42.75 C-18.889808034354047 -42.75, 42.150071431291906 -42.75, 79.9296875 -42.75 M-79.9296875 -42.75 C-17.41205473845558 -42.75, 45.10557802308884 -42.75, 79.9296875 -42.75" stroke="#9370DB" stroke-width="1.3" fill="none" stroke-dasharray="0 0"/></g></g><g class="node default" id="entity-ВЛОЖЕНИЕ-1" transform="translate(643.53125, 594.75)"><g style=""><path d="M-87.109375 -64.125 L87.109375 -64.125 L87.109375 64.125 L-87.109375 64.125" stroke="none" stroke-width="0" fill="#ECECFF"/><path d="M-87.109375 -64.125 C-31.13281001751868 -64.125, 24.843754964962642 -64.125, 87.109375 -64.125 M-87.109375 -64.125 C-49.811759050714734 -64.125, -12.514143101429468 -64.125, 87.109375 -64.125 M87.109375 -64.125 C87.109375 -34.80268515070102, 87.109375 -5.480370301402047, 87.109375 64.125 M87.109375 -64.125 C87.109375 -18.59194874828168, 87.109375 26.94110250343664, 87.109375 64.125 M87.109375 64.125 C44.90090833041508 64.125, 2.6924416608301556 64.125, -87.109375 64.125 M87.109375 64.125 C34.28340666044333 64.125, -18.542561679113334 64.125, -87.109375 64.125 M-87.109375 64.125 C-87.109375 35.38777267326158, -87.109375 6.650545346523167, -87.109375 -64.125 M-87.109375 64.125 C-87.109375 18.970947184188958, -87.109375 -26.183105631622084, -87.109375 -64.125" stroke="#9370DB" stroke-width="1.3" fill="none" stroke-dasharray="0 0"/></g><g style="" class="row-rect-odd"><path d="M-87.109375 -21.375 L87.109375 -21.375 L87.109375 21.375 L-87.109375 21.375" stroke="none" stroke-width="0" fill="hsl(240, 100%, 100%)"/><path d="M-87.109375 -21.375 C-27.33610503259765 -21.375, 32.4371649348047 -21.375, 87.109375 -21.375 M-87.109375 -21.375 C-23.85781322347634 -21.375, 39.39374855304732 -21.375, 87.109375 -21.375 M87.109375 -21.375 C87.109375 -8.215639571167243, 87.109375 4.9437208576655145, 87.109375 21.375 M87.109375 -21.375 C87.109375 -8.425544285220088, 87.109375 4.523911429559824, 87.109375 21.375 M87.109375 21.375 C39.09203083070206 21.375, -8.925313338595885 21.375, -87.109375 21.375 M87.109375 21.375 C42.72707021698219 21.375, -1.6552345660356167 21.375, -87.109375 21.375 M-87.109375 21.375 C-87.109375 9.724089802471648, -87.109375 -1.9268203950567049, -87.109375 -21.375 M-87.109375 21.375 C-87.109375 9.394682778337085, -87.109375 -2.58563444332583, -87.109375 -21.375" stroke="#9370DB" stroke-width="1.3" fill="none" stroke-dasharray="0 0"/></g><g style="" class="row-rect-even"><path d="M-87.109375 21.375 L87.109375 21.375 L87.109375 64.125 L-87.109375 64.125" stroke="none" stroke-width="0" fill="hsl(240, 100%, 97.2745098039%)"/><path d="M-87.109375 21.375 C-32.966513641841345 21.375, 21.17634771631731 21.375, 87.109375 21.375 M-87.109375 21.375 C-44.444819409203696 21.375, -1.7802638184073913 21.375, 87.109375 21.375 M87.109375 21.375 C87.109375 36.513058616900715, 87.109375 51.65111723380143, 87.109375 64.125 M87.109375 21.375 C87.109375 33.22336037832842, 87.109375 45.071720756656845, 87.109375 64.125 M87.109375 64.125 C46.97931022595959 64.125, 6.849245451919174 64.125, -87.109375 64.125 M87.109375 64.125 C39.87642571476283 64.125, -7.356523570474337 64.125, -87.109375 64.125 M-87.109375 64.125 C-87.109375 49.23474977375616, -87.109375 34.344499547512314, -87.109375 21.375 M-87.109375 64.125 C-87.109375 50.90699700432942, -87.109375 37.68899400865884, -87.109375 21.375" stroke="#9370DB" stroke-width="1.3" fill="none" stroke-dasharray="0 0"/></g><g class="label name" transform="translate(-41.75, -54.75)" style=""><foreignObject width="83.5" height="24"><div xmlns="http://www.w3.org/1999/xhtml" style="display: table-cell; white-space: nowrap; line-height: 1.5; max-width: 189px; text-align: start;"><span class="nodeLabel"><p>ВЛОЖЕНИЕ</p></span></div></foreignObject></g><g class="label attribute-type" transform="translate(-74.609375, -12)" style=""><foreignObject width="19.65625" height="24"><div xmlns="http://www.w3.org/1999/xhtml" style="display: table-cell; white-space: nowrap; line-height: 1.5; max-width: 117px; text-align: start;"><span class="nodeLabel"><p>int</p></span></div></foreignObject></g><g class="label attribute-name" transform="translate(-9.234375, -12)" style=""><foreignObject width="13.484375" height="24"><div xmlns="http://www.w3.org/1999/xhtml" style="display: table-cell; white-space: nowrap; line-height: 1.5; max-width: 112px; text-align: start;"><span class="nodeLabel"><p>id</p></span></div></foreignObject></g><g class="label attribute-keys" transform="translate(99.609375, -12)" style=""><foreignObject width="0" height="0"><div xmlns="http://www.w3.org/1999/xhtml" style="display: table-cell; white-space: nowrap; line-height: 1.5; max-width: 100px; text-align: start;"><span class="nodeLabel"></span></div></foreignObject></g><g class="label attribute-comment" transform="translate(99.609375, -12)" style=""><foreignObject width="0" height="0"><div xmlns="http://www.w3.org/1999/xhtml" style="display: table-cell; white-space: nowrap; line-height: 1.5; max-width: 100px; text-align: start;"><span class="nodeLabel"></span></div></foreignObject></g><g class="label attribute-type" transform="translate(-74.609375, 30.75)" style=""><foreignObject width="40.375" height="24"><div xmlns="http://www.w3.org/1999/xhtml" style="display: table-cell; white-space: nowrap; line-height: 1.5; max-width: 136px; text-align: start;"><span class="nodeLabel"><p>string</p></span></div></foreignObject></g><g class="label attribute-name" transform="translate(-9.234375, 30.75)" style=""><foreignObject width="83.84375" height="24"><div xmlns="http://www.w3.org/1999/xhtml" style="display: table-cell; white-space: nowrap; line-height: 1.5; max-width: 175px; text-align: start;"><span class="nodeLabel"><p>имя_файла</p></span></div></foreignObject></g><g class="label attribute-keys" transform="translate(99.609375, 30.75)" style=""><foreignObject width="0" height="0"><div xmlns="http://www.w3.org/1999/xhtml" style="display: table-cell; white-space: nowrap; line-height: 1.5; max-width: 100px; text-align: start;"><span class="nodeLabel"></span></div></foreignObject></g><g class="label attribute-comment" transform="translate(99.609375, 30.75)" style=""><foreignObject width="0" height="0"><div xmlns="http://www.w3.org/1999/xhtml" style="display: table-cell; white-space: nowrap; line-height: 1.5; max-width: 100px; text-align: start;"><span class="nodeLabel"></span></div></foreignObject></g><g class="divider"><path d="M-87.109375 -21.375 C-32.43952926157616 -21.375, 22.230316476847676 -21.375, 87.109375 -21.375 M-87.109375 -21.375 C-28.82461064392532 -21.375, 29.460153712149364 -21.375, 87.109375 -21.375" stroke="#9370DB" stroke-width="1.3" fill="none" stroke-dasharray="0 0"/></g><g class="divider"><path d="M-21.734375 -21.375 C-21.734375 3.2815523025804367, -21.734375 27.938104605160873, -21.734375 64.125 M-21.734375 -21.375 C-21.734375 -2.4367059109249887, -21.734375 16.501588178150023, -21.734375 64.125" stroke="#9370DB" stroke-width="1.3" fill="none" stroke-dasharray="0 0"/></g><g class="divider"><path d="M-87.109375 -21.375 C-43.855669661096904 -21.375, -0.6019643221938082 -21.375, 87.109375 -21.375 M-87.109375 -21.375 C-41.77589475129544 -21.375, 3.5575854974091214 -21.375, 87.109375 -21.375" stroke="#9370DB" stroke-width="1.3" fill="none" stroke-dasharray="0 0"/></g></g><g class="node default" id="entity-ПОЛЬЗОВАТЕЛЬ-2" transform="translate(332.33984375, 72.125)"><g style=""><path d="M-83.625 -64.125 L83.625 -64.125 L83.625 64.125 L-83.625 64.125" stroke="none" stroke-width="0" fill="#ECECFF"/><path d="M-83.625 -64.125 C-48.02699056891079 -64.125, -12.42898113782158 -64.125, 83.625 -64.125 M-83.625 -64.125 C-48.93773441513711 -64.125, -14.250468830274215 -64.125, 83.625 -64.125 M83.625 -64.125 C83.625 -15.322293508356417, 83.625 33.48041298328717, 83.625 64.125 M83.625 -64.125 C83.625 -26.704989511472995, 83.625 10.71502097705401, 83.625 64.125 M83.625 64.125 C50.05604568980226 64.125, 16.48709137960452 64.125, -83.625 64.125 M83.625 64.125 C28.533735555036863 64.125, -26.557528889926274 64.125, -83.625 64.125 M-83.625 64.125 C-83.625 17.393224000420247, -83.625 -29.338551999159506, -83.625 -64.125 M-83.625 64.125 C-83.625 21.446673015876407, -83.625 -21.231653968247187, -83.625 -64.125" stroke="#9370DB" stroke-width="1.3" fill="none" stroke-dasharray="0 0"/></g><g style="" class="row-rect-odd"><path d="M-83.625 -21.375 L83.625 -21.375 L83.625 21.375 L-83.625 21.375" stroke="none" stroke-width="0" fill="hsl(240, 100%, 100%)"/><path d="M-83.625 -21.375 C-24.75269098401492 -21.375, 34.11961803197016 -21.375, 83.625 -21.375 M-83.625 -21.375 C-48.14914459076398 -21.375, -12.673289181527963 -21.375, 83.625 -21.375 M83.625 -21.375 C83.625 -11.83208403354291, 83.625 -2.2891680670858214, 83.625 21.375 M83.625 -21.375 C83.625 -10.240308727730573, 83.625 0.8943825445388534, 83.625 21.375 M83.625 21.375 C36.354869421307924 21.375, -10.915261157384151 21.375, -83.625 21.375 M83.625 21.375 C43.23318823746075 21.375, 2.8413764749215034 21.375, -83.625 21.375 M-83.625 21.375 C-83.625 9.071102690270715, -83.625 -3.23279461945857, -83.625 -21.375 M-83.625 21.375 C-83.625 12.259538203811092, -83.625 3.144076407622183, -83.625 -21.375" stroke="#9370DB" stroke-width="1.3" fill="none" stroke-dasharray="0 0"/></g><g style="" class="row-rect-even"><path d="M-83.625 21.375 L83.625 21.375 L83.625 64.125 L-83.625 64.125" stroke="none" stroke-width="0" fill="hsl(240, 100%, 97.2745098039%)"/><path d="M-83.625 21.375 C-45.21743183769048 21.375, -6.809863675380953 21.375, 83.625 21.375 M-83.625 21.375 C-20.368164587125776 21.375, 42.88867082574845 21.375, 83.625 21.375 M83.625 21.375 C83.625 31.083706661238466, 83.625 40.79241332247693, 83.625 64.125 M83.625 21.375 C83.625 31.83971621343461, 83.625 42.30443242686922, 83.625 64.125 M83.625 64.125 C47.64491065938334 64.125, 11.664821318766684 64.125, -83.625 64.125 M83.625 64.125 C26.55114279300804 64.125, -30.52271441398392 64.125, -83.625 64.125 M-83.625 64.125 C-83.625 47.190723383139, -83.625 30.256446766277996, -83.625 21.375 M-83.625 64.125 C-83.625 49.61435292571421, -83.625 35.103705851428415, -83.625 21.375" stroke="#9370DB" stroke-width="1.3" fill="none" stroke-dasharray="0 0"/></g><g class="label name" transform="translate(-58.625, -54.75)" style=""><foreignObject width="117.25" height="24"><div xmlns="http://www.w3.org/1999/xhtml" style="display: table-cell; white-space: nowrap; line-height: 1.5; max-width: 221px; text-align: start;"><span class="nodeLabel"><p>ПОЛЬЗОВАТЕЛЬ</p></span></div></foreignObject></g><g class="label attribute-type" transform="translate(-71.125, -12)" style=""><foreignObject width="19.65625" height="24"><div xmlns="http://www.w3.org/1999/xhtml" style="display: table-cell; white-space: nowrap; line-height: 1.5; max-width: 117px; text-align: start;"><span class="nodeLabel"><p>int</p></span></div></foreignObject></g><g class="label attribute-name" transform="translate(16.015625, -12)" style=""><foreignObject width="13.484375" height="24"><div xmlns="http://www.w3.org/1999/xhtml" style="display: table-cell; white-space: nowrap; line-height: 1.5; max-width: 112px; text-align: start;"><span class="nodeLabel"><p>id</p></span></div></foreignObject></g><g class="label attribute-keys" transform="translate(96.125, -12)" style=""><foreignObject width="0" height="0"><div xmlns="http://www.w3.org/1999/xhtml" style="display: table-cell; white-space: nowrap; line-height: 1.5; max-width: 100px; text-align: start;"><span class="nodeLabel"></span></div></foreignObject></g><g class="label attribute-comment" transform="translate(96.125, -12)" style=""><foreignObject width="0" height="0"><div xmlns="http://www.w3.org/1999/xhtml" style="display: table-cell; white-space: nowrap; line-height: 1.5; max-width: 100px; text-align: start;"><span class="nodeLabel"></span></div></foreignObject></g><g class="label attribute-type" transform="translate(-71.125, 30.75)" style=""><foreignObject width="40.375" height="24"><div xmlns="http://www.w3.org/1999/xhtml" style="display: table-cell; white-space: nowrap; line-height: 1.5; max-width: 136px; text-align: start;"><span class="nodeLabel"><p>string</p></span></div></foreignObject></g><g class="label attribute-name" transform="translate(16.015625, 30.75)" style=""><foreignObject width="33.34375" height="24"><div xmlns="http://www.w3.org/1999/xhtml" style="display: table-cell; white-space: nowrap; line-height: 1.5; max-width: 136px; text-align: start;"><span class="nodeLabel"><p>ФИО</p></span></div></foreignObject></g><g class="label attribute-keys" transform="translate(96.125, 30.75)" style=""><foreignObject width="0" height="0"><div xmlns="http://www.w3.org/1999/xhtml" style="display: table-cell; white-space: nowrap; line-height: 1.5; max-width: 100px; text-align: start;"><span class="nodeLabel"></span></div></foreignObject></g><g class="label attribute-comment" transform="translate(96.125, 30.75)" style=""><foreignObject width="0" height="0"><div xmlns="http://www.w3.org/1999/xhtml" style="display: table-cell; white-space: nowrap; line-height: 1.5; max-width: 100px; text-align: start;"><span class="nodeLabel"></span></div></foreignObject></g><g class="divider"><path d="M-83.625 -21.375 C-20.230036331759607 -21.375, 43.16492733648079 -21.375, 83.625 -21.375 M-83.625 -21.375 C-23.44207172559021 -21.375, 36.74085654881958 -21.375, 83.625 -21.375" stroke="#9370DB" stroke-width="1.3" fill="none" stroke-dasharray="0 0"/></g><g class="divider"><path d="M3.515625 -21.375 C3.515625 8.678600313158302, 3.515625 38.732200626316605, 3.515625 64.125 M3.515625 -21.375 C3.515625 -2.0897574557106644, 3.515625 17.19548508857867, 3.515625 64.125" stroke="#9370DB" stroke-width="1.3" fill="none" stroke-dasharray="0 0"/></g><g class="divider"><path d="M-83.625 -21.375 C-49.0706825751501 -21.375, -14.516365150300203 -21.375, 83.625 -21.375 M-83.625 -21.375 C-46.52167274400403 -21.375, -9.418345488008057 -21.375, 83.625 -21.375" stroke="#9370DB" stroke-width="1.3" fill="none" stroke-dasharray="0 0"/></g></g><g class="node default" id="entity-АКТИВ-3" transform="translate(286.5078125, 594.75)"><g style=""><path d="M-85.6171875 -85.5 L85.6171875 -85.5 L85.6171875 85.5 L-85.6171875 85.5" stroke="none" stroke-width="0" fill="#ECECFF"/><path d="M-85.6171875 -85.5 C-40.352577692007856 -85.5, 4.912032115984289 -85.5, 85.6171875 -85.5 M-85.6171875 -85.5 C-39.64741954929016 -85.5, 6.322348401419674 -85.5, 85.6171875 -85.5 M85.6171875 -85.5 C85.6171875 -34.59596333719307, 85.6171875 16.30807332561386, 85.6171875 85.5 M85.6171875 -85.5 C85.6171875 -27.787416955721795, 85.6171875 29.92516608855641, 85.6171875 85.5 M85.6171875 85.5 C22.305482209526694 85.5, -41.00622308094661 85.5, -85.6171875 85.5 M85.6171875 85.5 C27.24958598830011 85.5, -31.118015523399777 85.5, -85.6171875 85.5 M-85.6171875 85.5 C-85.6171875 42.202331019066364, -85.6171875 -1.0953379618672727, -85.6171875 -85.5 M-85.6171875 85.5 C-85.6171875 32.92092390827149, -85.6171875 -19.65815218345702, -85.6171875 -85.5" stroke="#9370DB" stroke-width="1.3" fill="none" stroke-dasharray="0 0"/></g><g style="" class="row-rect-odd"><path d="M-85.6171875 -42.75 L85.6171875 -42.75 L85.6171875 0 L-85.6171875 0" stroke="none" stroke-width="0" fill="hsl(240, 100%, 100%)"/><path d="M-85.6171875 -42.75 C-27.926894311652745 -42.75, 29.76339887669451 -42.75, 85.6171875 -42.75 M-85.6171875 -42.75 C-36.91356941845637 -42.75, 11.790048663087262 -42.75, 85.6171875 -42.75 M85.6171875 -42.75 C85.6171875 -30.773119697671763, 85.6171875 -18.796239395343527, 85.6171875 0 M85.6171875 -42.75 C85.6171875 -26.46907250672569, 85.6171875 -10.188145013451383, 85.6171875 0 M85.6171875 0 C24.623232776395405 0, -36.37072194720919 0, -85.6171875 0 M85.6171875 0 C44.0548275397269 0, 2.492467579453802 0, -85.6171875 0 M-85.6171875 0 C-85.6171875 -12.68531466484188, -85.6171875 -25.37062932968376, -85.6171875 -42.75 M-85.6171875 0 C-85.6171875 -15.385809395067987, -85.6171875 -30.771618790135975, -85.6171875 -42.75" stroke="#9370DB" stroke-width="1.3" fill="none" stroke-dasharray="0 0"/></g><g style="" class="row-rect-even"><path d="M-85.6171875 0 L85.6171875 0 L85.6171875 42.75 L-85.6171875 42.75" stroke="none" stroke-width="0" fill="hsl(240, 100%, 97.2745098039%)"/><path d="M-85.6171875 0 C-17.945819615438822 0, 49.725548269122356 0, 85.6171875 0 M-85.6171875 0 C-33.36386107706736 0, 18.889465345865275 0, 85.6171875 0 M85.6171875 0 C85.6171875 16.451003921340583, 85.6171875 32.902007842681165, 85.6171875 42.75 M85.6171875 0 C85.6171875 15.480404933167478, 85.6171875 30.960809866334955, 85.6171875 42.75 M85.6171875 42.75 C26.059578287037645 42.75, -33.49803092592471 42.75, -85.6171875 42.75 M85.6171875 42.75 C45.100924401126726 42.75, 4.584661302253451 42.75, -85.6171875 42.75 M-85.6171875 42.75 C-85.6171875 32.70930877944658, -85.6171875 22.66861755889316, -85.6171875 0 M-85.6171875 42.75 C-85.6171875 26.18451532216735, -85.6171875 9.6190306443347, -85.6171875 0" stroke="#9370DB" stroke-width="1.3" fill="none" stroke-dasharray="0 0"/></g><g style="" class="row-rect-odd"><path d="M-85.6171875 42.75 L85.6171875 42.75 L85.6171875 85.5 L-85.6171875 85.5" stroke="none" stroke-width="0" fill="hsl(240, 100%, 100%)"/><path d="M-85.6171875 42.75 C-22.238712156246777 42.75, 41.139763187506446 42.75, 85.6171875 42.75 M-85.6171875 42.75 C-39.288391626537454 42.75, 7.0404042469250925 42.75, 85.6171875 42.75 M85.6171875 42.75 C85.6171875 57.43227605898832, 85.6171875 72.11455211797664, 85.6171875 85.5 M85.6171875 42.75 C85.6171875 59.745782257992374, 85.6171875 76.74156451598475, 85.6171875 85.5 M85.6171875 85.5 C37.74624729684103 85.5, -10.124692906317946 85.5, -85.6171875 85.5 M85.6171875 85.5 C50.04109640768509 85.5, 14.465005315370178 85.5, -85.6171875 85.5 M-85.6171875 85.5 C-85.6171875 73.38305455007236, -85.6171875 61.2661091001447, -85.6171875 42.75 M-85.6171875 85.5 C-85.6171875 72.94374845663499, -85.6171875 60.387496913269985, -85.6171875 42.75" stroke="#9370DB" stroke-width="1.3" fill="none" stroke-dasharray="0 0"/></g><g class="label name" transform="translate(-24.5234375, -76.125)" style=""><foreignObject width="49.046875" height="24"><div xmlns="http://www.w3.org/1999/xhtml" style="display: table-cell; white-space: nowrap; line-height: 1.5; max-width: 154px; text-align: start;"><span class="nodeLabel"><p>АКТИВ</p></span></div></foreignObject></g><g class="label attribute-type" transform="translate(-73.1171875, -33.375)" style=""><foreignObject width="19.65625" height="24"><div xmlns="http://www.w3.org/1999/xhtml" style="display: table-cell; white-space: nowrap; line-height: 1.5; max-width: 117px; text-align: start;"><span class="nodeLabel"><p>int</p></span></div></foreignObject></g><g class="label attribute-name" transform="translate(-7.7421875, -33.375)" style=""><foreignObject width="13.484375" height="24"><div xmlns="http://www.w3.org/1999/xhtml" style="display: table-cell; white-space: nowrap; line-height: 1.5; max-width: 112px; text-align: start;"><span class="nodeLabel"><p>id</p></span></div></foreignObject></g><g class="label attribute-keys" transform="translate(98.1171875, -33.375)" style=""><foreignObject width="0" height="0"><div xmlns="http://www.w3.org/1999/xhtml" style="display: table-cell; white-space: nowrap; line-height: 1.5; max-width: 100px; text-align: start;"><span class="nodeLabel"></span></div></foreignObject></g><g class="label attribute-comment" transform="translate(98.1171875, -33.375)" style=""><foreignObject width="0" height="0"><div xmlns="http://www.w3.org/1999/xhtml" style="display: table-cell; white-space: nowrap; line-height: 1.5; max-width: 100px; text-align: start;"><span class="nodeLabel"></span></div></foreignObject></g><g class="label attribute-type" transform="translate(-73.1171875, 9.375)" style=""><foreignObject width="40.375" height="24"><div xmlns="http://www.w3.org/1999/xhtml" style="display: table-cell; white-space: nowrap; line-height: 1.5; max-width: 136px; text-align: start;"><span class="nodeLabel"><p>string</p></span></div></foreignObject></g><g class="label attribute-name" transform="translate(-7.7421875, 9.375)" style=""><foreignObject width="80.859375" height="24"><div xmlns="http://www.w3.org/1999/xhtml" style="display: table-cell; white-space: nowrap; line-height: 1.5; max-width: 174px; text-align: start;"><span class="nodeLabel"><p>инв_номер</p></span></div></foreignObject></g><g class="label attribute-keys" transform="translate(98.1171875, 9.375)" style=""><foreignObject width="0" height="0"><div xmlns="http://www.w3.org/1999/xhtml" style="display: table-cell; white-space: nowrap; line-height: 1.5; max-width: 100px; text-align: start;"><span class="nodeLabel"></span></div></foreignObject></g><g class="label attribute-comment" transform="translate(98.1171875, 9.375)" style=""><foreignObject width="0" height="0"><div xmlns="http://www.w3.org/1999/xhtml" style="display: table-cell; white-space: nowrap; line-height: 1.5; max-width: 100px; text-align: start;"><span class="nodeLabel"></span></div></foreignObject></g><g class="label attribute-type" transform="translate(-73.1171875, 52.125)" style=""><foreignObject width="40.375" height="24"><div xmlns="http://www.w3.org/1999/xhtml" style="display: table-cell; white-space: nowrap; line-height: 1.5; max-width: 136px; text-align: start;"><span class="nodeLabel"><p>string</p></span></div></foreignObject></g><g class="label attribute-name" transform="translate(-7.7421875, 52.125)" style=""><foreignObject width="25.140625" height="24"><div xmlns="http://www.w3.org/1999/xhtml" style="display: table-cell; white-space: nowrap; line-height: 1.5; max-width: 124px; text-align: start;"><span class="nodeLabel"><p>тип</p></span></div></foreignObject></g><g class="label attribute-keys" transform="translate(98.1171875, 52.125)" style=""><foreignObject width="0" height="0"><div xmlns="http://www.w3.org/1999/xhtml" style="display: table-cell; white-space: nowrap; line-height: 1.5; max-width: 100px; text-align: start;"><span class="nodeLabel"></span></div></foreignObject></g><g class="label attribute-comment" transform="translate(98.1171875, 52.125)" style=""><foreignObject width="0" height="0"><div xmlns="http://www.w3.org/1999/xhtml" style="display: table-cell; white-space: nowrap; line-height: 1.5; max-width: 100px; text-align: start;"><span class="nodeLabel"></span></div></foreignObject></g><g class="divider"><path d="M-85.6171875 -42.75 C-35.934269278640265 -42.75, 13.74864894271947 -42.75, 85.6171875 -42.75 M-85.6171875 -42.75 C-46.077855129415795 -42.75, -6.53852275883159 -42.75, 85.6171875 -42.75" stroke="#9370DB" stroke-width="1.3" fill="none" stroke-dasharray="0 0"/></g><g class="divider"><path d="M-20.2421875 -42.75 C-20.2421875 -0.14378363030630226, -20.2421875 42.462432739387395, -20.2421875 85.5 M-20.2421875 -42.75 C-20.2421875 -1.9344334012242115, -20.2421875 38.88113319755158, -20.2421875 85.5" stroke="#9370DB" stroke-width="1.3" fill="none" stroke-dasharray="0 0"/></g><g class="divider"><path d="M-85.6171875 -42.75 C-41.8423880507578 -42.75, 1.9324113984844047 -42.75, 85.6171875 -42.75 M-85.6171875 -42.75 C-35.204000027270496 -42.75, 15.209187445459008 -42.75, 85.6171875 -42.75" stroke="#9370DB" stroke-width="1.3" fill="none" stroke-dasharray="0 0"/></g></g><g class="node default" id="entity-ЛОКАЦИЯ-4" transform="translate(286.5078125, 322.75)"><g style=""><path d="M-101.9765625 -64.125 L101.9765625 -64.125 L101.9765625 64.125 L-101.9765625 64.125" stroke="none" stroke-width="0" fill="#ECECFF"/><path d="M-101.9765625 -64.125 C-50.33563933693344 -64.125, 1.3052838261331203 -64.125, 101.9765625 -64.125 M-101.9765625 -64.125 C-58.13617499215595 -64.125, -14.295787484311901 -64.125, 101.9765625 -64.125 M101.9765625 -64.125 C101.9765625 -32.80467990296985, 101.9765625 -1.484359805939711, 101.9765625 64.125 M101.9765625 -64.125 C101.9765625 -28.578935835081595, 101.9765625 6.967128329836811, 101.9765625 64.125 M101.9765625 64.125 C28.905851141357985 64.125, -44.16486021728403 64.125, -101.9765625 64.125 M101.9765625 64.125 C34.90920910058463 64.125, -32.158144298830734 64.125, -101.9765625 64.125 M-101.9765625 64.125 C-101.9765625 29.299643903204156, -101.9765625 -5.525712193591687, -101.9765625 -64.125 M-101.9765625 64.125 C-101.9765625 29.2415146271397, -101.9765625 -5.641970745720599, -101.9765625 -64.125" stroke="#9370DB" stroke-width="1.3" fill="none" stroke-dasharray="0 0"/></g><g style="" class="row-rect-odd"><path d="M-101.9765625 -21.375 L101.9765625 -21.375 L101.9765625 21.375 L-101.9765625 21.375" stroke="none" stroke-width="0" fill="hsl(240, 100%, 100%)"/><path d="M-101.9765625 -21.375 C-48.50144035751077 -21.375, 4.973681784978453 -21.375, 101.9765625 -21.375 M-101.9765625 -21.375 C-49.56281235078029 -21.375, 2.8509377984394177 -21.375, 101.9765625 -21.375 M101.9765625 -21.375 C101.9765625 -6.890833971050151, 101.9765625 7.593332057899698, 101.9765625 21.375 M101.9765625 -21.375 C101.9765625 -10.950900050490137, 101.9765625 -0.5268001009802745, 101.9765625 21.375 M101.9765625 21.375 C48.67811356174749 21.375, -4.620335376505025 21.375, -101.9765625 21.375 M101.9765625 21.375 C57.11054555054026 21.375, 12.244528601080518 21.375, -101.9765625 21.375 M-101.9765625 21.375 C-101.9765625 7.385863763062952, -101.9765625 -6.603272473874096, -101.9765625 -21.375 M-101.9765625 21.375 C-101.9765625 10.921345789051662, -101.9765625 0.46769157810332374, -101.9765625 -21.375" stroke="#9370DB" stroke-width="1.3" fill="none" stroke-dasharray="0 0"/></g><g style="" class="row-rect-even"><path d="M-101.9765625 21.375 L101.9765625 21.375 L101.9765625 64.125 L-101.9765625 64.125" stroke="none" stroke-width="0" fill="hsl(240, 100%, 97.2745098039%)"/><path d="M-101.9765625 21.375 C-42.80551227612111 21.375, 16.365537947757787 21.375, 101.9765625 21.375 M-101.9765625 21.375 C-21.55480454341742 21.375, 58.86695341316516 21.375, 101.9765625 21.375 M101.9765625 21.375 C101.9765625 32.6489433944071, 101.9765625 43.92288678881419, 101.9765625 64.125 M101.9765625 21.375 C101.9765625 31.062477139181212, 101.9765625 40.749954278362424, 101.9765625 64.125 M101.9765625 64.125 C46.45321445882889 64.125, -9.070133582342223 64.125, -101.9765625 64.125 M101.9765625 64.125 C33.761953293932464 64.125, -34.45265591213507 64.125, -101.9765625 64.125 M-101.9765625 64.125 C-101.9765625 53.702789353226684, -101.9765625 43.28057870645337, -101.9765625 21.375 M-101.9765625 64.125 C-101.9765625 50.847375974344516, -101.9765625 37.56975194868903, -101.9765625 21.375" stroke="#9370DB" stroke-width="1.3" fill="none" stroke-dasharray="0 0"/></g><g class="label name" transform="translate(-35.78125, -54.75)" style=""><foreignObject width="71.5625" height="24"><div xmlns="http://www.w3.org/1999/xhtml" style="display: table-cell; white-space: nowrap; line-height: 1.5; max-width: 178px; text-align: start;"><span class="nodeLabel"><p>ЛОКАЦИЯ</p></span></div></foreignObject></g><g class="label attribute-type" transform="translate(-89.4765625, -12)" style=""><foreignObject width="19.65625" height="24"><div xmlns="http://www.w3.org/1999/xhtml" style="display: table-cell; white-space: nowrap; line-height: 1.5; max-width: 117px; text-align: start;"><span class="nodeLabel"><p>int</p></span></div></foreignObject></g><g class="label attribute-name" transform="translate(-24.1015625, -12)" style=""><foreignObject width="13.484375" height="24"><div xmlns="http://www.w3.org/1999/xhtml" style="display: table-cell; white-space: nowrap; line-height: 1.5; max-width: 112px; text-align: start;"><span class="nodeLabel"><p>id</p></span></div></foreignObject></g><g class="label attribute-keys" transform="translate(114.4765625, -12)" style=""><foreignObject width="0" height="0"><div xmlns="http://www.w3.org/1999/xhtml" style="display: table-cell; white-space: nowrap; line-height: 1.5; max-width: 100px; text-align: start;"><span class="nodeLabel"></span></div></foreignObject></g><g class="label attribute-comment" transform="translate(114.4765625, -12)" style=""><foreignObject width="0" height="0"><div xmlns="http://www.w3.org/1999/xhtml" style="display: table-cell; white-space: nowrap; line-height: 1.5; max-width: 100px; text-align: start;"><span class="nodeLabel"></span></div></foreignObject></g><g class="label attribute-type" transform="translate(-89.4765625, 30.75)" style=""><foreignObject width="40.375" height="24"><div xmlns="http://www.w3.org/1999/xhtml" style="display: table-cell; white-space: nowrap; line-height: 1.5; max-width: 136px; text-align: start;"><span class="nodeLabel"><p>string</p></span></div></foreignObject></g><g class="label attribute-name" transform="translate(-24.1015625, 30.75)" style=""><foreignObject width="113.578125" height="24"><div xmlns="http://www.w3.org/1999/xhtml" style="display: table-cell; white-space: nowrap; line-height: 1.5; max-width: 200px; text-align: start;"><span class="nodeLabel"><p>подразделение</p></span></div></foreignObject></g><g class="label attribute-keys" transform="translate(114.4765625, 30.75)" style=""><foreignObject width="0" height="0"><div xmlns="http://www.w3.org/1999/xhtml" style="display: table-cell; white-space: nowrap; line-height: 1.5; max-width: 100px; text-align: start;"><span class="nodeLabel"></span></div></foreignObject></g><g class="label attribute-comment" transform="translate(114.4765625, 30.75)" style=""><foreignObject width="0" height="0"><div xmlns="http://www.w3.org/1999/xhtml" style="display: table-cell; white-space: nowrap; line-height: 1.5; max-width: 100px; text-align: start;"><span class="nodeLabel"></span></div></foreignObject></g><g class="divider"><path d="M-101.9765625 -21.375 C-43.02364310273229 -21.375, 15.929276294535427 -21.375, 101.9765625 -21.375 M-101.9765625 -21.375 C-47.91758098678935 -21.375, 6.141400526421293 -21.375, 101.9765625 -21.375" stroke="#9370DB" stroke-width="1.3" fill="none" stroke-dasharray="0 0"/></g><g class="divider"><path d="M-36.6015625 -21.375 C-36.6015625 0.355301189294309, -36.6015625 22.085602378588618, -36.6015625 64.125 M-36.6015625 -21.375 C-36.6015625 -0.2905062546401993, -36.6015625 20.7939874907196, -36.6015625 64.125" stroke="#9370DB" stroke-width="1.3" fill="none" stroke-dasharray="0 0"/></g><g class="divider"><path d="M-101.9765625 -21.375 C-29.5483701039975 -21.375, 42.879822292005 -21.375, 101.9765625 -21.375 M-101.9765625 -21.375 C-53.66760099466852 -21.375, -5.358639489337037 -21.375, 101.9765625 -21.375" stroke="#9370DB" stroke-width="1.3" fill="none" stroke-dasharray="0 0"/></g></g></g></g></g></svg>